<svg xmlns="http://www.w3.org/2000/svg" viewBox="0 0 100 130" width="100" height="130">
  <path d="M10,50 C10,0 90,0 90,50 C90,100 70,130 50,130 C30,130 10,100 10,50 Z" fill="#f5f5f5" stroke="#cccccc" stroke-width="2"/>
  <ellipse cx="32" cy="50" rx="10" ry="5" fill="#000000" />
  <ellipse cx="68" cy="50" rx="10" ry="5" fill="#000000" />
  <path d="M20,38 Q32,30 45,43" fill="none" stroke="#000000" stroke-width="3" stroke-linecap="round"/>
  <path d="M80,38 Q68,30 55,43" fill="none" stroke="#000000" stroke-width="3" stroke-linecap="round"/>
  <circle cx="25" cy="70" r="7" fill="#ffb3b3" opacity="0.8"/>
  <circle cx="75" cy="70" r="7" fill="#ffb3b3" opacity="0.8"/>
  <path d="M30,82 Q50,68 70,82" fill="none" stroke="#000000" stroke-width="4" stroke-linecap="round"/>
  <path d="M48,76 L50,80 L52,76 Z" fill="#000000"/>
  <path d="M46,110 L50,122 L54,110 Z" fill="#000000"/>
</svg>
